<svg xmlns="http://www.w3.org/2000/svg" xmlns:xlink="http://www.w3.org/1999/xlink" viewBox="0 0 200 150"><defs><style>.cls-1{fill:#f59b00;}.cls-2{fill:#ffe9c2;}.cls-3{opacity:0.32;isolation:isolate;fill:url(#linear-gradient);}.cls-4{fill:url(#linear-gradient-2);}.cls-5{fill:#56403d;}.cls-6{fill:#42210b;}.cls-7{fill:#fff5e3;}.cls-8{fill:#b8ecff;}.cls-9{opacity:0.47;}.cls-10{fill:#0bf;}.cls-11{fill:#99e4ff;}.cls-12{fill:#fbb5ad;}.cls-13{fill:#b24d16;}.cls-14{fill:#0087b8;}.cls-15{fill:#54d1ff;}.cls-16{fill:#b5ebff;}.cls-17{fill:#ffd387;}.cls-18{fill:#61d5ff;}.cls-19{fill:#ffc35c;}.cls-20{fill:#40ccff;}</style><linearGradient id="linear-gradient" x1="66.3" y1="891.99" x2="82.98" y2="881.48" gradientTransform="translate(0 -758)" gradientUnits="userSpaceOnUse"><stop offset="0" stop-color="#fff" stop-opacity="0"/><stop offset="0.98" stop-color="#ffbd4a"/></linearGradient><linearGradient id="linear-gradient-2" x1="-2054.59" y1="841.25" x2="-2070.87" y2="863.59" gradientTransform="matrix(-1, 0, 0, 1, -1935.95, -758)" gradientUnits="userSpaceOnUse"><stop offset="0.01" stop-color="#7ddcff"/><stop offset="1" stop-color="#fff"/></linearGradient></defs><g id="Layer_1" data-name="Layer 1"><polygon class="cls-1" points="177.15 93.57 177.66 99.06 171.19 102.02 171.19 98.38 177.15 93.57"/><path class="cls-1" d="M19.81,106.18l.72,6.18L26.05,115l1.56-5.2Z"/><path class="cls-1" d="M176.18,101.71C159,111,108.29,140.21,92.34,149.42a9.69,9.69,0,0,1-9.74,0L21.88,113.91c-2.41-1.4-1.64-4.07.8-5.45l84.74-49.23a2.86,2.86,0,0,1,2.86,0l66,37.48a2.83,2.83,0,0,1,1.06,3.86h0A2.86,2.86,0,0,1,176.18,101.71Z"/><path class="cls-2" d="M175.66,96c-17.22,9.24-67.92,38.49-83.84,47.74a9.69,9.69,0,0,1-9.74,0L21.36,108.19c-2.41-1.41-1.64-4.08.8-5.45L106.9,53.5a2.91,2.91,0,0,1,2.86,0l66,37.52a2.83,2.83,0,0,1,1,3.86A2.9,2.9,0,0,1,175.66,96Z"/><path class="cls-3" d="M69.74,134.25c.61.28,7.48,4.43,8.18,4.69l32.36-19.13-3.4-7.69-16.07-4.69-34.07,19C62.46,129.82,63.74,131.5,69.74,134.25Z"/><path class="cls-4" d="M127,85.06c5.64,3.74,24.21,17.94,29.78,21.75-9.48,5.24-14.57,8-15.64,8.74l-34-19.25Z"/><path class="cls-5" d="M155.92,78.76s-.71,6.51-4.76,8-9.66-4.26-9.66-4.26l8.59-6.33"/><path class="cls-5" d="M145.52,61.05a2.7,2.7,0,0,1,2.56,0c3.52,1.45,8.59,4.33,8.54,9.47a56.66,56.66,0,0,1-.71,8.23,10,10,0,0,1-.84,3.32c-.81,1.38-4.37-1.73-5-2.25-1.16-.89-2.28-1.84-3.38-2.81-.82-.73-2.66-1.87-3-3a3,3,0,0,1-.08-.79A53,53,0,0,1,144,66C144.12,64.43,144.21,62,145.52,61.05Z"/><path class="cls-6" d="M137,97.36c-.19.27.28,2.87-.66,3.67s-3.34,2.18-2.6,2.75c2.17,1.67,7.08-2.6,7.08-2.6V96.71"/><path class="cls-6" d="M131.44,95.05c-.19.27.28,2.87-.66,3.68s-3.28,2.08-2.6,2.74c1.8,1.72,7.75-2,7.75-2l-.67-5.08"/><path class="cls-7" d="M148.91,80.21s.3,3.23-1.22,4.52-6.95,2.85-6.95,2.85,1.83,8.84,1.5,9.64-4.27,1.23-6.34,0c0,0-3,.78-5-1,0,0-3.87-10.92-2.64-14.51s8-4.58,8-4.58Z"/><polygon class="cls-5" points="151.17 84.41 151.16 86.76 149.95 86.95 151.17 84.41"/><path class="cls-8" d="M130.36,68.88l-12.45-7.17A.66.66,0,0,0,117,62a.72.72,0,0,0-.08.32v9.49a1,1,0,0,0,.52.9l12.28,6.91a.77.77,0,0,0,1.06-.25h0a.73.73,0,0,0,.12-.41V69.84A1.07,1.07,0,0,0,130.36,68.88Z"/><polygon class="cls-8" points="151.17 85.88 151.17 104.77 150.01 105.6 148.21 104.42 148.21 85.54 150.66 84.41 151.17 85.88"/><path class="cls-8" d="M150.61,87.19l-17.06,9.92a1.12,1.12,0,0,1-1.17,0L107.81,81.65a1.14,1.14,0,0,1-.35-1.57,1.1,1.1,0,0,1,.41-.39l16.57-9a1.15,1.15,0,0,1,1.11,0l25,14.47a1.12,1.12,0,0,1,.45,1.52v0A1.09,1.09,0,0,1,150.61,87.19Z"/><path class="cls-8" d="M109.8,79.37V96.83l-1.16.82-1.8-1.18V79A22.74,22.74,0,0,1,109.8,79.37Z"/><polygon class="cls-8" points="135.46 93.33 135.46 112.22 134.3 113.05 132.5 111.87 132.5 92.99 134.95 91.86 135.46 93.33"/><g class="cls-9"><polygon class="cls-10" points="151.17 85.88 151.17 104.77 150.01 105.6 148.21 104.42 148.21 85.54 150.66 84.41 151.17 85.88"/><path class="cls-10" d="M150.61,87.19l-17.06,9.92a1.12,1.12,0,0,1-1.17,0L107.81,81.65a1.14,1.14,0,0,1-.35-1.57,1.1,1.1,0,0,1,.41-.39l16.57-9a1.15,1.15,0,0,1,1.11,0l25,14.47a1.12,1.12,0,0,1,.45,1.52v0A1.09,1.09,0,0,1,150.61,87.19Z"/><path class="cls-10" d="M109.8,79.37V96.83l-1.16.82-1.8-1.18V79A22.74,22.74,0,0,1,109.8,79.37Z"/><polygon class="cls-10" points="135.46 93.33 135.46 112.22 134.3 113.05 132.5 111.87 132.5 92.99 134.95 91.86 135.46 93.33"/></g><path class="cls-8" d="M150.74,85.44,133.22,95.6a.91.91,0,0,1-1,0l-25-15.69a.93.93,0,0,1-.3-1.28,1.1,1.1,0,0,1,.35-.33l17-9.16a.9.9,0,0,1,.9,0l25.57,14.71a.93.93,0,0,1,.32,1.27A.82.82,0,0,1,150.74,85.44Z"/><path class="cls-5" d="M130.36,68.88l-12.45-7.17A.66.66,0,0,0,117,62a.72.72,0,0,0-.08.32v9.49a1,1,0,0,0,.52.9l12.28,6.91a.77.77,0,0,0,1.06-.25h0a.73.73,0,0,0,.12-.41V69.84A1.07,1.07,0,0,0,130.36,68.88Z"/><polygon class="cls-5" points="131.88 88.99 126.14 85.57 132.88 81.59 138.78 85.01 131.88 88.99"/><polygon class="cls-8" points="129.37 88.73 123.63 85.31 130.37 81.34 136.27 84.75 129.37 88.73"/><polyline class="cls-5" points="124.69 75.03 124.69 79.09 121.87 77.58 121.87 73.58"/><ellipse class="cls-5" cx="123.93" cy="78.47" rx="1.13" ry="4.78" transform="translate(-1.09 155.2) rotate(-63.88)"/><path class="cls-11" d="M142.57,85.16c-.29.37-.06,1.18-1.56,1.84s-5.17.84-4.59-.62,3.47-2,3.47-2"/><path class="cls-12" d="M141.74,81.93a26.32,26.32,0,0,1-2.23,2c-.55.35-2.64,1-2.49,1.74s2-.59,2.13-.52a1.37,1.37,0,0,0,1.27.73c1.1.11,1.56,0,1.84-.37s1.62-2,1.16-2.55A5.11,5.11,0,0,0,141.74,81.93Z"/><path class="cls-12" d="M128.32,64.28a13.33,13.33,0,0,1-2.23-2.57c-.52-1-.93-.06-.89.42s.89,1.44.89,1.44-.27.92-.27,1-.26,1.47.52,1.92a7.13,7.13,0,0,0,2.41.52l.27-2.18Z"/><path class="cls-11" d="M128.26,63.53a17.38,17.38,0,0,0,13.16,1h.18l-.21,5.66c-7,1.91-13.58-2.74-13.58-2.74A6.84,6.84,0,0,0,128.26,63.53Z"/><path class="cls-11" d="M140.57,65.88a7.59,7.59,0,0,1,2-2.3c1.19.7,3.05,1.11,4.16,2,3.12,2.43,3,6.7,2.63,10.23-.14,1.45-.49,3-.49,4.43a10,10,0,0,1-3.26.77,51.56,51.56,0,0,1-5.47-3.94C140.23,73.32,140.35,69.6,140.57,65.88Z"/><path class="cls-12" d="M140.65,61.25s-.22,5.85,1.77,6.24a3.33,3.33,0,0,0,3.79-2.37,8.05,8.05,0,0,0-.35-2.71S144.13,60.65,140.65,61.25Z"/><path class="cls-13" d="M140.28,60.28a1.6,1.6,0,0,1,2.55-1.57,2,2,0,0,1,1.56-.75,1.24,1.24,0,0,1,1.29,1.17v.12a1.5,1.5,0,0,1,1.31.38,1.34,1.34,0,0,1,.28,1.53,1.4,1.4,0,0,1,1.11,1.33,1.76,1.76,0,0,1-.15.85,1.23,1.23,0,0,1,.12.26A1.32,1.32,0,0,1,148,65a1.53,1.53,0,0,1-.82.41,1.18,1.18,0,0,1-1,.82,1.13,1.13,0,0,1-1.25-.85,1.24,1.24,0,0,1,0-.47,2.68,2.68,0,0,1-.46-1.78.72.72,0,0,1-.25-.07,1.11,1.11,0,0,1-.56-.57,1.59,1.59,0,0,1-.8.21.77.77,0,0,1-.64-.39,1.87,1.87,0,0,1-2-.34A1.3,1.3,0,0,1,140.28,60.28Z"/><path class="cls-12" d="M144.32,64.59a1.35,1.35,0,0,1,.43-1,.72.72,0,0,1,1-.11h0a.83.83,0,0,1,.12,1c-.19.37-.6.45-.92.65s-.36-.06-.35-.24a.28.28,0,0,1-.31-.24Z"/><path class="cls-11" d="M148.38,67.41a6.79,6.79,0,0,1,1.72,4.35c.11,2.79-.94,8.82-5.83,12.18,0,0-2-1.71-3.59-1.83,0,0,3.74-4.85,3.64-7"/><path class="cls-5" d="M140.85,82.08c2.33-3.42,4.34-7.16,4.75-11.35,0-.23.39-.23.37,0-.42,4.26-2.44,8.06-4.8,11.54A.19.19,0,0,1,140.85,82.08Z"/><path class="cls-8" d="M125.74,57.52l-7.52-4.33a.4.4,0,0,0-.54.15.34.34,0,0,0,0,.2v5.72a.63.63,0,0,0,.32.52l7.4,4.16a.45.45,0,0,0,.63-.14h0a.44.44,0,0,0,.08-.25V58.09A.68.68,0,0,0,125.74,57.52Z"/><path class="cls-10" d="M36.06,42a2.42,2.42,0,0,0-1.21,2.12v59.49a1.72,1.72,0,0,0,2.4,1.7L61.62,91.48c1-.56,45.59-25.66,45.59-26.79l2.42-62.35a1.17,1.17,0,0,0-1.21-1.14,1.11,1.11,0,0,0-.54.14C97,7.45,41,39.17,36.06,42Z"/><path class="cls-14" d="M48.21,36.77,37.05,43.31a.72.72,0,0,0-.34.61v59.46a.46.46,0,0,0,.46.48h0a.45.45,0,0,0,.25-.07l69.84-40.63A3.2,3.2,0,0,1,106,65.71c-1.34.85-68.7,39.64-68.7,39.64a1.65,1.65,0,0,1-2.4-1.38V44.16a2.46,2.46,0,0,1,1-2C36.94,41.39,106.3,1,106.3,1s2.53-.93,3.37.59L55.31,32.71"/><path class="cls-15" d="M130.74,18.1l-.48,12.66c-.07,1.89-.64,3.12-1.71,3.64s-2.44.3-4.1-.74a9.29,9.29,0,0,1-2.24-2,11.1,11.1,0,0,1-1.47-2.07l-.43-.84,2.14-1.13a3.36,3.36,0,0,0,.2.43,5.65,5.65,0,0,0,.64.9,4.74,4.74,0,0,0,1,1,1.86,1.86,0,0,0,1.78.35c.44-.23.68-.78.72-1.66L127.26,16Z"/><path class="cls-15" d="M171.6,43.64l5.55,22.56-3.64-2.28-1.2-5.21-6.14-3.83-1.52,3.55L161,56.16l7-14.75Zm-4.16,8.46,3.87,2.42-1.7-7.34-2.17,4.92"/><polygon class="cls-15" points="162.87 38.18 156.25 53.15 152.61 50.87 147.41 28.53 151.05 30.8 154.61 47.2 159.23 35.91 162.87 38.18"/><path class="cls-15" d="M142.3,25.33l5.55,22.57-3.64-2.28L143,40.37l-6.13-3.82-1.53,3.54-3.61-2.28,7-14.74Zm-4.16,8.46L142,36.21l-1.7-7.34-2.17,4.92"/><path class="cls-15" d="M124.82,17.3,127.31,16l1.91,5-1.77,6.28-1.34,3.84-1.8,1-3.07-3.85-1.28.71a3.84,3.84,0,0,0,1.78,3.18,12.76,12.76,0,0,0,4.65,1.29l-.15,2.24,2.5-1.31.52-2"/><polyline class="cls-15" points="136.18 24.41 138.67 23.07 142.25 30.4 147.85 47.9 145.37 49.24 143.01 40.37 136.5 38.02 135.35 40.08 132.86 41.43"/><polyline class="cls-15" points="144.93 29.87 147.41 28.53 150.16 31.98 151.67 41.69 153.47 47.52 156.74 37.25 159.23 35.91 161.01 39.6 156.25 53.15 153.77 54.49"/><polyline class="cls-15" points="165.49 42.72 167.97 41.37 169.87 46.37 171.31 54.52 177.15 66.2 174.66 67.54 170.81 59.39 166.2 56.08 166.18 54.85 164.65 58.39 162.16 59.74"/><path class="cls-16" d="M128.24,19.44l-.5,12.66c-.07,1.9-.64,3.12-1.71,3.64s-2.43.3-4.1-.74a9.49,9.49,0,0,1-2.24-2,10.71,10.71,0,0,1-1.44-2.08l-.43-.84L120,29a1.66,1.66,0,0,0,.2.43,6.47,6.47,0,0,0,.64.91,4.11,4.11,0,0,0,1,.95,1.81,1.81,0,0,0,1.78.35c.44-.23.68-.78.71-1.65l.48-12.65Z"/><path class="cls-16" d="M169.11,45l5.55,22.57L171,65.28,169.82,60l-6.08-3.84-1.58,3.52-3.64-2.28,7-14.75ZM165,53.44l3.87,2.42-1.69-7.35L165,53.43"/><polygon class="cls-16" points="160.38 39.53 153.77 54.49 150.12 52.21 144.93 29.87 148.56 32.14 152.12 48.55 156.74 37.25 160.38 39.53"/><path class="cls-16" d="M139.81,26.71l5.56,22.57L141.74,47l-1.21-5.24-6.14-3.84-1.53,3.54-3.64-2.27,7-14.74Zm-4.16,8.46,3.87,2.42-1.7-7.34-2.17,4.92"/><polygon class="cls-17" points="86.34 26.19 86.34 27.95 101.02 19.41 101.02 17.7 86.34 26.19"/><polygon class="cls-18" points="84.88 27.04 43.48 50.97 43.48 52.85 84.88 28.8 84.88 27.04"/><polygon class="cls-11" points="49.96 52.94 43.48 56.68 43.48 58.57 49.96 54.81 49.96 52.94"/><polygon class="cls-17" points="51.42 52.09 51.42 53.96 74.6 40.49 74.6 38.69 51.42 52.09"/><polygon class="cls-19" points="76.06 37.85 76.06 39.63 91.22 30.83 91.22 29.09 76.06 37.85"/><polygon class="cls-11" points="92.68 28.24 92.68 29.98 101.02 25.13 101.02 23.41 92.68 28.24"/><polygon class="cls-18" points="85.34 38.15 43.95 62.08 43.95 63.97 85.34 39.91 85.34 38.15"/><polygon class="cls-17" points="88.68 46.97 88.68 48.73 103.37 40.19 103.37 38.48 88.68 46.97"/><polygon class="cls-18" points="87.22 47.81 45.83 71.75 45.83 73.64 87.22 49.58 87.22 47.81"/><polygon class="cls-11" points="52.31 73.72 45.83 77.46 45.83 79.35 52.31 75.59 52.31 73.72"/><polygon class="cls-17" points="53.76 72.87 53.76 74.74 76.94 61.26 76.94 59.47 53.76 72.87"/><polygon class="cls-19" points="78.41 58.63 78.41 60.42 93.57 51.61 93.57 49.86 78.41 58.63"/><polygon class="cls-11" points="95.03 49.02 95.03 50.76 103.37 45.91 103.37 44.19 95.03 49.02"/><polygon class="cls-18" points="87.69 58.93 46.29 82.86 46.29 84.75 87.69 60.69 87.69 58.93"/><path class="cls-20" d="M70.74,114a2.26,2.26,0,0,0,.86,1,1.47,1.47,0,0,0-.36,1.2Z"/><polygon class="cls-20" points="95.14 107.97 96.24 108.73 94.89 114.26 93.29 113.17 94.16 109.86 90.34 111.16 88.74 110.07 95.14 107.97"/><path class="cls-20" d="M110.81,114.71l.52,2.21a2.18,2.18,0,0,0-.9-1.13A1.43,1.43,0,0,0,110.81,114.71Z"/><path class="cls-8" d="M110.81,114.71a1.46,1.46,0,0,1-.37,1.08,2.11,2.11,0,0,1-.45.39l-15.53,9.75a3.07,3.07,0,0,1-1.92.4,3.57,3.57,0,0,1-1.38-.42L71.82,115.13l-.23-.14a2.26,2.26,0,0,1-.86-1,1.56,1.56,0,0,1,.7-1.92l14.66-9.42a3.17,3.17,0,0,1,2-.42,3.84,3.84,0,0,1,1.29.38l20.2,10.4A2.15,2.15,0,0,1,110.81,114.71ZM92.5,118.5l.83-.82L87,110l-.83.82,6.36,7.67m-8,1.77,6.4-2.08-1.6-1.09-3.82,1.29.87-3.31L84.75,114l-1.36,5.53,1.11.75m10.34-6,1.4-5.56-1.1-.76-6.4,2.11,1.6,1.09,3.82-1.3-.87,3.32,1.6,1.09"/><path class="cls-20" d="M110.44,115.71a2.14,2.14,0,0,1,.9,1.13,1.57,1.57,0,0,1-.76,1.82L95.06,128.4a3.1,3.1,0,0,1-1.93.4,3.37,3.37,0,0,1-1.39-.39l-19.32-10.7a2.17,2.17,0,0,1-1.19-1.51,1.44,1.44,0,0,1,.36-1.2l.23.14,19.35,10.73a3.32,3.32,0,0,0,1.37.42,3.1,3.1,0,0,0,1.93-.4L110,116.15A2.08,2.08,0,0,0,110.44,115.71Z"/><polygon class="cls-20" points="86.97 109.96 93.33 117.63 92.5 118.45 86.14 110.78 86.97 109.96"/><polygon class="cls-20" points="84.79 113.94 86.4 115.03 85.53 118.33 89.35 117.05 90.94 118.13 84.54 120.22 83.43 119.46 84.79 113.94"/></g></svg>