<svg id="Layer_1" data-name="Layer 1" xmlns="http://www.w3.org/2000/svg" xmlns:xlink="http://www.w3.org/1999/xlink" viewBox="0 0 200 150"><defs><style>.cls-1{fill:#f59b00;}.cls-2{fill:#ffe9c2;}.cls-3,.cls-4{opacity:0.32;isolation:isolate;}.cls-3{fill:url(#linear-gradient);}.cls-4{fill:url(#linear-gradient-2);}.cls-5{fill:#99e4ff;}.cls-6{fill:#52eb85;}.cls-7{fill:#fff;}.cls-8{fill:#f2f2f2;}.cls-9{fill:#ffb93e;}.cls-10{fill:#68e1fd;}.cls-11{fill:#0bf;}.cls-12{fill:#f9d8a3;}.cls-13{fill:#ffac99;}.cls-14{fill:#92c9e3;}.cls-15{fill:#443f35;}.cls-16{fill:#15156d;}.cls-17{fill:#ededf9;}.cls-18{opacity:0.55;}.cls-19{fill:#af594a;}.cls-20{fill:#635e00;}</style><linearGradient id="linear-gradient" x1="95.18" y1="381.83" x2="101.6" y2="385.27" gradientTransform="matrix(1, 0, 0, -1, 0, 492)" gradientUnits="userSpaceOnUse"><stop offset="0" stop-color="#fff" stop-opacity="0"/><stop offset="0.99" stop-color="#dc841e"/></linearGradient><linearGradient id="linear-gradient-2" x1="72.41" y1="354" x2="79.83" y2="359.41" xlink:href="#linear-gradient"/></defs><path class="cls-1" d="M166.86,101.94l5.81-2.9q-.13-3.27-.26-6.54l-7.29,6"/><path class="cls-1" d="M166.86,101.94l5.81-2.9q-.13-3.27-.26-6.54l-7.29,6"/><path class="cls-1" d="M49.06,131.6a2.18,2.18,0,0,1,.81-3l87.06-50a5.14,5.14,0,0,1,5.17,0l29.8,17.14a2.17,2.17,0,0,1,0,3.77l-86.43,50a6.3,6.3,0,0,1-6.39,0L49.93,132.41A1.65,1.65,0,0,1,49.06,131.6Z"/><polyline class="cls-1" points="54.34 135 48.96 131.56 48.2 125.51 54.34 130.11"/><path class="cls-2" d="M48.48,126.37a2.17,2.17,0,0,1,.81-3l87.06-50a5.14,5.14,0,0,1,5.17,0l29.8,17.13a2.17,2.17,0,0,1,0,3.77L84.89,144.26a6.3,6.3,0,0,1-6.39,0L49.35,127.19A1.7,1.7,0,0,1,48.48,126.37Z"/><path class="cls-1" d="M49.06,131.6a2.18,2.18,0,0,1,.81-3l87.06-50a5.14,5.14,0,0,1,5.17,0l29.8,17.14a2.17,2.17,0,0,1,0,3.77l-86.43,50a6.3,6.3,0,0,1-6.39,0L49.93,132.41A1.65,1.65,0,0,1,49.06,131.6Z"/><polyline class="cls-1" points="54.34 135 48.96 131.56 48.2 125.51 54.34 130.11"/><path class="cls-2" d="M48.48,126.37a2.17,2.17,0,0,1,.81-3l87.06-50a5.14,5.14,0,0,1,5.17,0l29.8,17.13a2.17,2.17,0,0,1,0,3.77L84.89,144.26a6.3,6.3,0,0,1-6.39,0L49.35,127.19A1.7,1.7,0,0,1,48.48,126.37Z"/><polyline class="cls-3" points="137.9 90.61 98.15 115.89 87.42 107.82 124.39 87.23"/><polyline class="cls-4" points="116.96 120.08 80.07 141.28 61.84 131.14 94.4 113.01"/><path class="cls-5" d="M45.81,45.08l76-43.76a2.33,2.33,0,0,1,3.49,1.83l4.88,60.63A2.34,2.34,0,0,1,129.05,66L54.62,108.12a2.32,2.32,0,0,1-3.17-.87,2.17,2.17,0,0,1-.28-.87l-6.51-59A2.32,2.32,0,0,1,45.81,45.08Z"/><path class="cls-6" d="M70,113.93l39.87-23.26a1.36,1.36,0,0,1,1.88.49,1.3,1.3,0,0,1,.19.67v13.25a1.38,1.38,0,0,1-.69,1.2L71.4,129.06a1.38,1.38,0,0,1-1.88-.51,1.51,1.51,0,0,1-.18-.66l-.21-12.35A1.83,1.83,0,0,1,70,113.93Z"/><ellipse class="cls-7" cx="76.56" cy="118.49" rx="4.33" ry="3.77" transform="translate(-64.18 108.77) rotate(-53.18)"/><path class="cls-8" d="M84.14,112.64l16.26-9.37a.66.66,0,0,0-.66-1.13l-16.26,9.38a.65.65,0,0,0,.66,1.12Z"/><path class="cls-8" d="M84.81,116.45l22.42-12.91a.66.66,0,0,0-.66-1.13L84.15,115.33a.65.65,0,0,0-.15.91.65.65,0,0,0,.81.21Z"/><path class="cls-9" d="M77.64,118.12l39.87-23.27a1.38,1.38,0,0,1,1.88.49,1.47,1.47,0,0,1,.19.67v13.28a1.37,1.37,0,0,1-.7,1.19L79,133.27a1.38,1.38,0,0,1-1.88-.5,1.28,1.28,0,0,1-.18-.66l-.21-12.37A1.82,1.82,0,0,1,77.64,118.12Z"/><ellipse class="cls-7" cx="84.16" cy="122.68" rx="4.33" ry="3.77" transform="translate(-64.48 116.53) rotate(-53.18)"/><path class="cls-8" d="M91.73,116.84,108,107.46a.65.65,0,0,0-.66-1.12l-16.26,9.33a.67.67,0,0,0-.15.92.66.66,0,0,0,.82.21Z"/><path class="cls-8" d="M92.4,120.64l22.42-12.92a.65.65,0,0,0-.66-1.12L91.74,119.51a.67.67,0,0,0-.15.92.66.66,0,0,0,.81.21Z"/><path class="cls-10" d="M84.72,122.56l39.87-23.27a1.37,1.37,0,0,1,1.88.49,1.44,1.44,0,0,1,.19.67v13.26a1.37,1.37,0,0,1-.7,1.19L86.08,137.71a1.38,1.38,0,0,1-1.88-.51,1.25,1.25,0,0,1-.18-.65l-.21-12.36A1.81,1.81,0,0,1,84.72,122.56Z"/><path class="cls-11" d="M84.72,122.56l39.87-23.27a1.37,1.37,0,0,1,1.88.49,1.44,1.44,0,0,1,.19.67v13.26a1.37,1.37,0,0,1-.7,1.19L86.08,137.71a1.38,1.38,0,0,1-1.88-.51,1.25,1.25,0,0,1-.18-.65l-.21-12.36A1.81,1.81,0,0,1,84.72,122.56Z"/><ellipse class="cls-7" cx="91.24" cy="127.11" rx="4.33" ry="3.77" transform="translate(-65.2 123.97) rotate(-53.18)"/><path class="cls-8" d="M98.82,121.27l16.26-9.38a.65.65,0,0,0,.15-.91.65.65,0,0,0-.81-.21l-16.27,9.37a.67.67,0,0,0-.15.92A.68.68,0,0,0,98.82,121.27Z"/><path class="cls-8" d="M99.49,125.08l22.42-12.92a.66.66,0,0,0-.66-1.13L98.83,124a.66.66,0,0,0-.15.92A.66.66,0,0,0,99.49,125.08Z"/><polygon class="cls-6" points="122.22 14.31 98.68 28.3 101.42 62.24 125.08 48.92 122.22 14.31"/><polygon class="cls-12" points="94.56 30.4 71.02 44.39 73.77 78.32 97.43 65.01 94.56 30.4"/><path class="cls-12" d="M66.17,47c0,.17,1.28,13.94,1.28,13.94S51.89,69.81,52,69.67,50.39,56,50.39,56Z"/><path class="cls-9" d="M68.49,65.05c0,.18,1.29,13.94,1.29,13.94S54.22,87.84,54.3,87.7,52.72,74,52.72,74Z"/><path class="cls-13" d="M124.53,38.92a6.83,6.83,0,0,0,0-2.26,13.74,13.74,0,0,1-.39-2.38.64.64,0,0,0-.76.41,4,4,0,0,0,.24,1.9s-1.35,2.81,0,4.09S124.53,38.92,124.53,38.92Z"/><path class="cls-14" d="M133.54,47.72l-9-8.8s-2,4.43,0,6.45l8.25,8.22"/><path class="cls-15" d="M135.21,84s1.25,1.74,1.17,2.73-1.69,2.7-2,3.42-.45,1,0,1.56,4.33-2.85,4.42-3.39a12.39,12.39,0,0,0-.54-2.61L140,87.9l1.25-.74-2.65-4.47"/><path class="cls-16" d="M134.73,91.78c.1-.1,3.17-1.16,3.17-1.16s1.44-1.5,1.4-2.07-.58-2.84-1.11-2.82-.58,3-.58,3Z"/><path class="cls-15" d="M131.08,86.87l-.4,4.59s-1,.72-1.23.66-1-.25-1-.37.34-3.24.24-3.32-1.62,2.39-2.09,2.44-4.12-2.06-3.77-2.87,2.11-.38,3-.39a3.06,3.06,0,0,0,2.72-2"/><path class="cls-17" d="M128.77,74.44l-2.22,11.77s1.29,1.67,5.88,1.46l3.41-8.35"/><path class="cls-17" d="M127.79,56s-3.42,5-2.37,13.09c.94,7.17,8.1,15.62,8.1,15.62s2.14.94,6.6-3.28l-4.92-7.82s4.79-11.11-.87-18.17"/><g class="cls-18"><path class="cls-8" d="M114.87,50c-1.74-.14-2.9-2.5-2.68-5.36s1.8-5,3.54-4.83,2.91,2.5,2.69,5.36S116.62,50.18,114.87,50Zm.79-9.24c-1.16-.09-2.32,1.75-2.52,4s.64,4.22,1.82,4.32,2.32-1.74,2.52-4-.65-4.23-1.82-4.33Z"/></g><path class="cls-13" d="M118.14,46.39a.5.5,0,0,0-.5-.5.5.5,0,0,0-.5.5h0v1l-.11-.22a14.77,14.77,0,0,1-.87-2.91c-.12-.64-1-.35-1,.27A10.13,10.13,0,0,0,115.5,46l-.1,0a.66.66,0,0,0-.83.43v0a.94.94,0,0,0,0,.47h-.07a.71.71,0,0,0-.54.87.66.66,0,0,0,.12.27.76.76,0,0,0-.24.39,1,1,0,0,0,.43.92c.35.28.72.65,1,1s.88.8,1.26,1.12,1-.74,1-1.09a.47.47,0,0,0,.57-.32.38.38,0,0,0,0-.15Q118.1,48.11,118.14,46.39Z"/><path class="cls-19" d="M116.14,47.45c-.24-.49-.45-1-.65-1.49,0-.11-.21-.06-.17,0,.2.52.43,1,.67,1.54C116,47.65,116.19,47.56,116.14,47.45Z"/><path class="cls-5" d="M128.31,44.94A16.5,16.5,0,0,0,126,47.49c-.65,1-3.24,3.91-4.31,3s-3-2.5-3-2.5-2.7,1.85-2.42,3.78c0,0,2.4,4.9,6.13,3.82s4.65-2.49,4.65-2.49l.58,3.18s4.64,1.45,6.78-.7c0,0,1.41-9.15.37-10.51"/><path class="cls-13" d="M127.8,39.4c0,.11-.12,3.43,1,3.74a3.57,3.57,0,0,0,3.54-1.52c.5-1-.21-4.4-2-4.59S128.11,38.43,127.8,39.4Z"/><path class="cls-15" d="M129.17,40c.75.51.28,1.46,0,2.07a3.31,3.31,0,0,0-.33,1.52,2,2,0,0,1-.48,1.34,4.94,4.94,0,0,0-.64,1,14.87,14.87,0,0,0,5,.06,39.57,39.57,0,0,0,4.06-.54,2.44,2.44,0,0,0-.19-.84c-.32-.73-.84-1.12-.72-2a4,4,0,0,0,0-2c-.24-.68-.82-1-1.36-1.39a4.19,4.19,0,0,1-.45-.39l-.12-.2a9.31,9.31,0,0,0-1-1.7,3,3,0,0,0-1.61-.83,4.79,4.79,0,0,0-3.67.84A2.19,2.19,0,0,0,127,39C127.29,40,128.49,39.59,129.17,40Z"/><path class="cls-20" d="M128.31,76.86s3.92,6.78,5.23,7.82l-1.09,3S127.87,81.27,128.31,76.86Z"/><path class="cls-20" d="M135.12,73.23a21.3,21.3,0,0,1-2.05-8.44c0-.23-.37-.23-.36,0a21.82,21.82,0,0,0,2.1,8.62C134.9,73.62,135.21,73.44,135.12,73.23Z"/></svg>