<?xml version="1.0" encoding="utf-8"?>
<!-- Generator: Adobe Illustrator 24.2.1, SVG Export Plug-In . SVG Version: 6.00 Build 0)  -->
<svg version="1.1" id="Layer_1" xmlns="http://www.w3.org/2000/svg" xmlns:xlink="http://www.w3.org/1999/xlink" x="0px" y="0px"
	 viewBox="0 0 200 150" style="enable-background:new 0 0 200 150;" xml:space="preserve">
<style type="text/css">
	.st0{fill:#3A9B7D;}
	.st1{fill:#52EB85;}
	.st2{fill:#17C1FF;}
	.st3{fill:#BFEEFF;}
	.st4{fill:#21C4FF;}
	.st5{fill:#FFFFFF;}
	.st6{fill:#6ED8FF;}
	.st7{fill:#FFA200;}
	.st8{fill:#7ADCFF;}
	.st9{opacity:0.32;fill:url(#SVGID_1_);enable-background:new    ;}
	.st10{fill:#56403D;}
	.st11{fill:#B0EAFF;}
	.st12{fill:#053855;}
	.st13{fill:#33C9FF;}
	.st14{fill:#EDEDF9;}
	.st15{fill:#BC8E91;}
	.st16{fill:#8AE0FF;}
	.st17{fill:#EDFAFF;}
	.st18{fill:#443F35;}
	.st19{fill:#8CE0FF;}
</style>
<polygon class="st0" points="176.2,91.9 177.6,98 170.4,103.3 168.4,95.9 "/>
<polyline class="st0" points="22.4,104.3 24,111.6 29.2,113.6 31.2,109.7 22.3,104.3 "/>
<path class="st0" d="M176.2,101.1c-16.8,9-66.4,37.6-82,46.7c-2.9,1.7-6.6,1.7-9.5,0L25.3,113c-2.4-1.4-1.6-4,0.8-5.3L109,59.5
	c0.9-0.5,1.9-0.5,2.8,0l64.5,36.7c1.3,0.8,1.8,2.4,1,3.8C177.1,100.4,176.7,100.8,176.2,101.1L176.2,101.1z"/>
<path class="st1" d="M174.7,94.2c-16.9,9-66.4,37.6-82,46.7c-2.9,1.7-6.6,1.7-9.5,0l-59.4-34.7c-2.4-1.4-1.6-4,0.8-5.3l82.9-48.2
	c0.9-0.5,1.9-0.5,2.8,0l64.5,36.7c1.3,0.8,1.8,2.5,1,3.8C175.6,93.6,175.2,93.9,174.7,94.2L174.7,94.2z"/>
<path class="st2" d="M37.4,41.4c-0.7,0.4-1.2,1.2-1.2,2.1v58.2c-0.1,0.9,0.6,1.7,1.6,1.8c0.3,0,0.5,0,0.8-0.1l23.8-13.6
	c1-0.6,44.6-25.1,44.6-26.2l2.4-61c0-0.6-0.5-1.1-1.2-1.1c-0.2,0-0.4,0-0.5,0.1C97.1,7.6,42.3,38.6,37.4,41.4z"/>
<path class="st3" d="M49.3,36.3l-10.9,6.4c-0.2,0.1-0.3,0.4-0.3,0.6v58.2c0,0.3,0.3,0.5,0.5,0.5c0,0,0,0,0,0c0.1,0,0.1,0,0.2,0
	l68.3-39.7c0,1-0.5,1.9-1.3,2.5c-1.3,0.8-67.2,38.8-67.2,38.8c-0.8,0.4-1.8,0.1-2.2-0.8c-0.1-0.2-0.2-0.4-0.2-0.7V43.5
	c0-0.8,0.4-1.5,1-1.9c1-0.8,68.9-40.3,68.9-40.3s2.5-0.9,3.3,0.6L56.3,32.3"/>
<polyline class="st4" points="122.4,13.9 125.7,11.8 135.2,17.5 138.5,20.7 135.2,22.8 132.9,18.9 125.7,16.3 124.7,20.3 
	125.9,25.5 128,29.6 131.3,30.9 135.2,30.2 137.9,33.1 134.9,34.9 129.5,33.6 125.7,31.2 123.6,28.3 122.4,24.6 121.5,20.9 "/>
<path class="st4" d="M132,12.8c0.9,0.5,1.7,1.2,2.4,1.9c0.7,0.6,1.3,1.4,1.8,2.1c0.5,0.7,0.9,1.3,1.3,1.9c0.3,0.5,0.5,0.9,0.8,1.4
	l0.2,0.6l-2.3,1.2c-0.1-0.1-0.1-0.2-0.2-0.4s-0.2-0.5-0.5-1c-0.3-0.5-0.5-0.9-0.9-1.4c-0.4-0.5-0.8-1-1.2-1.4
	c-0.5-0.5-1-0.9-1.6-1.3c-1.5-0.9-2.8-1.1-3.8-0.6c-1.1,0.5-1.6,1.7-1.7,3.5c0,1.9,0.4,3.7,1.3,5.3c0.9,1.7,2.1,3.1,3.7,4.1
	c0.5,0.3,1.1,0.6,1.7,0.8c0.4,0.1,0.9,0.2,1.4,0.2c0.3,0,0.7-0.1,1-0.2c0.2-0.1,0.4-0.2,0.6-0.3l0.2-0.2l2,3.9
	c-0.1,0.1-0.2,0.2-0.3,0.2c-0.3,0.2-0.6,0.3-0.9,0.4c-0.4,0.2-0.9,0.3-1.4,0.3c-0.7,0-1.3-0.1-1.9-0.3c-0.9-0.2-1.7-0.6-2.5-1.1
	c-2.6-1.7-4.7-4-6.1-6.7c-1.5-2.6-2.3-5.5-2.2-8.5c0.1-2.7,1-4.5,2.8-5.4S129.6,11.3,132,12.8z"/>
<path class="st3" d="M128.7,14.9c0.9,0.5,1.7,1.2,2.4,1.9c0.7,0.6,1.3,1.4,1.8,2.1c0.5,0.7,0.9,1.3,1.3,1.9c0.3,0.5,0.5,0.9,0.8,1.4
	l0.2,0.6l-2.3,1.2c-0.1-0.1-0.1-0.2-0.2-0.4s-0.2-0.5-0.5-1c-0.3-0.5-0.5-0.9-0.9-1.4c-0.4-0.5-0.8-1-1.2-1.4
	c-0.5-0.5-1-0.9-1.6-1.3c-1.5-0.9-2.8-1.1-3.8-0.6s-1.6,1.7-1.7,3.5c0,1.9,0.4,3.7,1.3,5.3c0.8,1.7,2.1,3.1,3.7,4.1
	c0.5,0.3,1.1,0.6,1.7,0.8c0.4,0.1,0.9,0.2,1.4,0.2c0.3,0,0.7-0.1,1-0.2c0.2-0.1,0.4-0.2,0.6-0.3l0.2-0.2l2,3.9
	c-0.1,0.1-0.2,0.2-0.3,0.3c-0.3,0.2-0.6,0.3-0.9,0.4c-0.4,0.2-0.9,0.3-1.4,0.3c-0.7,0-1.3-0.1-1.9-0.3c-0.9-0.2-1.7-0.6-2.5-1.1
	c-2.6-1.7-4.7-4-6.1-6.8c-1.5-2.6-2.3-5.5-2.3-8.5c0.1-2.7,1-4.5,2.8-5.4S126.3,13.3,128.7,14.9z"/>
<polygon class="st5" points="87.4,27.6 87.4,29.3 101.2,21.2 101.2,19.6 "/>
<polygon class="st6" points="86,28.4 46.8,51 46.8,52.8 86,30.1 "/>
<polygon class="st7" points="53,52.9 46.8,56.4 46.8,58.2 53,54.7 "/>
<polygon class="st5" points="54.3,52.1 54.3,53.9 76.3,41.1 76.3,39.4 "/>
<polygon class="st8" points="77.6,38.6 77.6,40.3 92,32 92,30.3 "/>
<polygon class="st7" points="93.3,29.5 93.3,31.2 101.2,26.6 101.2,25 "/>
<polygon class="st6" points="86.4,38.9 47.3,61.5 47.3,63.3 86.4,40.6 "/>
<polygon class="st5" points="89.6,47.3 89.6,48.9 103.5,40.8 103.5,39.2 "/>
<polygon class="st6" points="88.2,48 49,70.7 49,72.5 88.2,49.7 "/>
<polygon class="st7" points="55.2,72.5 49,76.1 49,77.9 55.2,74.3 "/>
<polygon class="st5" points="56.5,71.7 56.5,73.5 78.5,60.8 78.5,59.1 "/>
<polygon class="st8" points="79.9,58.3 79.9,60 94.2,51.6 94.2,50 "/>
<polygon class="st7" points="95.6,49.2 95.6,50.8 103.5,46.3 103.5,44.6 "/>
<polygon class="st6" points="88.6,58.6 49.5,81.2 49.5,83 88.6,60.2 "/>
<linearGradient id="SVGID_1_" gradientUnits="userSpaceOnUse" x1="80.0764" y1="519.1542" x2="95.4664" y2="509.4542" gradientTransform="matrix(1 0 0 1 0 -388)">
	<stop  offset="0" style="stop-color:#FFFFFF;stop-opacity:0"/>
	<stop  offset="0.99" style="stop-color:#006837"/>
</linearGradient>
<path class="st9" d="M83.4,131.4c0.6,0.3,7.1,4.2,7.7,4.4l30.6-18.1l-10.6-5.5L96,110.5L71.1,124C76.5,127.2,77.7,128.8,83.4,131.4z
	"/>
<path class="st10" d="M101.8,104.9c0,0,0.1,1.5-0.4,1.9s-3-0.8-3.6-0.3s2.5,3.4,3.6,3.6s2.2-1.4,2.2-1.4v2.3l1.3,0.7l0.9-0.6
	l-0.3-6.2L101.8,104.9z"/>
<path class="st11" d="M103.5,97.2c1.5-1.2,3.4-1.6,5.3-1.2c2.1,0.5,3.9,1.8,6,2.1c0.3,0,1.7,0,1.9,0.2c5.9,5.6-10.6,5-10.6,5
	c-1.6-1.3-3.1-2.6-4.7-3.9C101.8,98.4,102.6,97.7,103.5,97.2z"/>
<path class="st12" d="M111.3,105.3l0.6,16.9c0,0.3-0.2,0.5-0.5,0.5s-0.5-0.2-0.5-0.5l-0.6-16.9C110.2,104.7,111.2,104.7,111.3,105.3
	z"/>
<path class="st12" d="M98.9,114.4c3-2.9,5.9-6,8.6-9.2c0.4-0.5,1.1,0.2,0.7,0.7c-2.7,3.2-5.6,6.3-8.6,9.2
	C99.1,115.5,98.4,114.8,98.9,114.4z"/>
<path class="st12" d="M114.7,103.8c2.3,4.4,4.5,8.9,6.6,13.4c0.3,0.6-0.6,1.1-0.9,0.5c-2.1-4.5-4.3-9-6.6-13.4
	C113.5,103.7,114.4,103.2,114.7,103.8z"/>
<path class="st3" d="M101.6,98.8c1,1.4,2.4,2.4,4,2.9c2.3,0.7,5.5,0.4,6.7-2c2.2-4.2,0.1-9.5,2.4-13.6c0.6-1,1.5-1.8,2.6-2.1
	c1.5-0.3,2.5,0.8,3,2.1c1,2.3,0.9,5.2,0.9,7.6c0,2-0.1,4-0.4,5.9c0,0-1.4,8.2-12.1,6c-1.9-0.3-3.6-1-5.3-1.9
	c-0.8-0.5-1.6-1.1-2.2-1.9C100.6,100.9,101.1,99.8,101.6,98.8z"/>
<path class="st13" d="M109.5,97.9c-0.4-3-0.6-5.9-0.6-8.9c0-0.2,0-0.4,0.2-0.5v-0.9c-2-0.1-5.2,0.2-7.4,1.8c-3,2-1.6,14.8-0.4,16.9
	c1.7,0.7,3.1,0.8,4.4-0.4l1.4-7.7c0.8,0.4,1.7,0.8,2.6,1.1C109.5,98.8,109.5,98.4,109.5,97.9z"/>
<path class="st10" d="M94.2,106.7c0,0,0.1,1.5-0.4,1.9s-3-0.8-3.7-0.3s2.5,3.4,3.7,3.6s2.2-1.4,2.2-1.4v2.3l1.3,0.7l0.9-0.6
	l-0.3-6.2L94.2,106.7z"/>
<path class="st14" d="M98.5,107.8c-1.3,1.2-2.8,1.1-4.4,0.4c-1.2-2.1-2.6-14.9,0.4-16.9c3.2-2.2,8.2-1.8,9.1-1.6l12.3,2
	c0.9,1.6-1.6,10-7,10.2c-3.1,0.2-6.2-0.4-8.9-1.8L98.5,107.8z"/>
<path class="st15" d="M103.3,72.7c0.6,0.3,1.1,0.7,1.4,1.3l0,0c0.9,0.7,1,2,1.9,2.6c0,0,0.9,0.6,0.9,0.7s-0.1-1.2-0.1-1.2l0,0
	c0.3,0.8,0.6,1.6,0.8,2.5l-0.1,0.1h0.1h0.1c0,0.1,0.1,0.2,0.2,0.2c0.1,0.3-0.1,0.7-0.4,0.8c0,0,0,0,0,0c-0.1,0.1-0.3,0.1-0.5,0
	l-2.8-1.4c-0.4-0.1-0.7-0.2-1.1-0.3c0-0.3,0-0.6-0.1-0.9c-0.4-0.7-0.5-1.6-0.2-2.3v-0.1l0,0c-0.5-0.3-0.8-0.8-0.9-1.4
	C102.4,73,102.8,72.5,103.3,72.7z"/>
<path class="st3" d="M106.8,75.3c0,0-3.2,2-3.5,3.6c0.8,1.6,1.5,3.3,2.1,5c-2.5,3.3,5-2.1,5-2.1S108.9,77.3,106.8,75.3z"/>
<path class="st3" d="M99.6,76.6c-0.3,2.2,2.5,5.2,3.7,5.8c1.6,0.8,2.2-5.9,9.3-5.9c0.4,0,2.8-1,4,2s0,11.7-0.8,13.2
	c-0.7,1.3-5.4,4.5-12.2,1.1l-0.1-3.1c0,0-4-0.1-6.1-3c-2-2.7-3.1-6.8-3-8.8C96,77.2,98,76,99.6,76.6z"/>
<path class="st16" d="M106.8,75.3c0,0-3.2,2-3.5,3.6c0.8,1.6,1.5,3.3,2.1,5c-2.5,3.3,5-2.1,5-2.1S108.9,77.3,106.8,75.3z"/>
<polyline class="st5" points="102.5,67.1 94.1,68.9 95.6,80.7 103.6,78.1 "/>
<path class="st15" d="M94.6,76.1C94.6,76.1,94.6,76.1,94.6,76.1c0.1,0.7,0.1,1.4,0.1,2.1c0,0.3,0.5,0.3,0.5,0V78
	c0.1,0,0.3-0.1,0.3-0.2v-0.1c0.1,0,0.2,0,0.3,0c0.1,0,0.1,0,0.2-0.1c0.1,0.1,0.1,0.1,0.2,0.1V78c0,0.3,0.5,0.3,0.5,0v-0.2
	c0.1,0.2,0.5,0.2,0.5,0v-0.4h0.1l0,0c0,0.1,0.2,0.2,0.3,0.2c0.1,0,0.1-0.1,0.2-0.2v-0.1c0.1,0.1,0.2,0,0.3-0.1c0,0,0,0,0,0l0,0
	c0.4-0.7,0.6-1.4,0.8-2.2c0.2-0.5,0-1.1-0.5-1.5c0,0-0.1-0.1-0.2-0.1l0,0l0.1-1.1c0-0.2,0.1-0.5,0.1-0.8c0.1-0.2,0.1-0.4,0-0.6
	c0-0.3-0.2-0.5-0.5-0.4c-0.5,0.1-0.7,0.8-0.8,1.2C97.1,72.2,97,72.6,97,73c-0.1-0.1-0.1-0.1-0.2-0.2c-0.3-0.1-0.6,0-0.8,0.2v0.1
	C96,73,95.9,73,95.8,73c-0.3-0.2-0.6-0.2-0.8,0c-0.1,0.1-0.2,0.3-0.3,0.4c-0.3-0.1-0.7,0-0.9,0.4c0,0,0,0,0,0v0.1
	C93.7,74.7,94,75.5,94.6,76.1z M96.7,73.4h-0.2c0,0,0,0,0-0.1C96.6,73.3,96.6,73.3,96.7,73.4L96.7,73.4z"/>
<path class="st15" d="M108.9,68.5c0,0.1-0.4,4.5,0.6,5.5s3.6,0.6,4.3-0.5s1.5-2.5,0.8-4.1S109,67.4,108.9,68.5z"/>
<path class="st17" d="M110.3,71.4c-0.1-0.2-0.1-0.4,0.1-0.5c0.3-0.4,0.7-0.6,1.2-0.7c0.4-0.1,0.9,0.1,1.1,0.6c0.3,1-1.3,1.3-2,1.4
	c-0.2,0-0.4-0.2-0.4-0.4c0,0,0,0,0,0C110.2,71.6,110.2,71.5,110.3,71.4z"/>
<path class="st16" d="M99.6,76.6c-0.3,2.2,2.5,5.2,3.7,5.8c1.6,0.8,2.2-5.9,9.3-5.9c0.4,0,2.8-1,4,2s0,11.7-0.8,13.2
	c-0.7,1.3-5.4,4.5-12.2,1.1l-0.1-3.1c0,0-4-0.1-6.1-3c-2-2.7-3.1-6.8-3-8.8C96,77.2,98,76,99.6,76.6z"/>
<path class="st5" d="M100.2,89c3.8,1.4,8,0,10.2-3.4c0.1-0.2,0.5,0,0.3,0.2c-2.3,3.5-6.7,5-10.7,3.6C99.8,89.3,99.9,88.9,100.2,89z"
	/>
<path class="st5" d="M104.1,81.6c0.4-0.8,0.9-1.6,1.6-2.2c0.8-0.7,1.7-1.2,2.5-1.8c0.2-0.1,0.4,0.1,0.2,0.2c-0.8,0.6-1.7,1-2.4,1.7
	c-0.7,0.6-1.3,1.4-1.6,2.3C104.3,82,104.1,81.8,104.1,81.6z"/>
<path class="st18" d="M108.8,69.2l1.4,0.8c0,0-1.1,4.2-1.4,5.2s1,2.6,5.2,2.7s4-6.3,3.1-8.7c-1.1-2.4-3.8-3.6-6.3-2.8
	C109.4,66.5,108.5,67.8,108.8,69.2z"/>
<path class="st10" d="M101.2,99.8c0.1-0.3,0.5-0.5,0.9-0.4c0.1,0,0.2,0.1,0.3,0.2c0.9,1,2.1,1.7,3.3,2.1c2.3,0.7,5.5,0.4,6.7-2
	c2.2-4.2,0.2-9.5,2.4-13.6c0.4-0.7,1-1.4,1.7-1.8c2-1.2,3.4,0.1,4,1.7c1,2.3,0.9,5.2,0.9,7.6c0,2-0.2,4-0.4,5.9c0,0-1.4,8.3-12.2,6
	c-1.9-0.3-3.6-1-5.3-1.9c-0.8-0.5-1.6-1.1-2.2-1.9C100.9,101.2,100.9,100.4,101.2,99.8z"/>
<g>
	<polygon class="st19" points="141,19.8 143.2,18.5 148.9,21.7 146.6,23 	"/>
</g>
<g>
	<polygon class="st4" points="149.3,27.5 151.5,26.2 151.5,33 149.3,34.3 	"/>
</g>
<g>
	<polygon class="st4" points="154.9,27.8 157.2,26.5 157.2,29.4 154.9,30.7 	"/>
</g>
<g>
	<polygon class="st19" points="149.3,24.6 151.5,23.3 157.2,26.5 154.9,27.8 	"/>
</g>
<g>
	<polygon class="st4" points="149.3,17.8 151.5,16.5 151.5,23.3 149.3,24.6 	"/>
</g>
<g>
	<polygon class="st19" points="146.7,16.3 148.9,15 151.5,16.5 149.3,17.8 	"/>
</g>
<g>
	<polygon class="st3" points="149.3,17.8 149.3,24.6 154.9,27.8 154.9,30.7 149.3,27.5 149.3,34.3 146.6,32.8 146.6,26 141,22.7 
		141,19.8 146.6,23 146.7,16.3 	"/>
</g>
<g>
	<polygon class="st19" points="157.4,29.1 159.6,27.8 165.2,31 163,32.3 	"/>
</g>
<g>
	<polygon class="st4" points="165.6,36.8 167.9,35.5 167.9,42.3 165.6,43.6 	"/>
</g>
<g>
	<polygon class="st4" points="171.3,37.1 173.5,35.8 173.5,38.7 171.3,40 	"/>
</g>
<g>
	<polygon class="st19" points="165.7,33.9 167.9,32.6 173.5,35.8 171.3,37.1 	"/>
</g>
<g>
	<polygon class="st4" points="165.7,27.1 167.9,25.8 167.9,32.6 165.7,33.9 	"/>
</g>
<g>
	<polygon class="st19" points="163,25.6 165.3,24.3 167.9,25.8 165.7,27.1 	"/>
</g>
<g>
	<polygon class="st3" points="165.7,27.1 165.7,33.9 171.3,37.1 171.3,40 165.6,36.8 165.6,43.6 163,42.1 163,35.2 157.4,32 
		157.4,29.1 163,32.3 163,25.6 	"/>
</g>
<path class="st4" d="M154.9,27.8"/>
</svg>
